<?xml version="1.0" standalone="no"?>
<!DOCTYPE svg PUBLIC "-//W3C//DTD SVG 20010904//EN"
 "http://www.w3.org/TR/2001/REC-SVG-20010904/DTD/svg10.dtd">
<svg version="1.0" xmlns="http://www.w3.org/2000/svg"
 width="611.000000pt" height="611.000000pt" viewBox="0 0 611.000000 611.000000"
 preserveAspectRatio="xMidYMid meet">
<metadata>
Created by potrace 1.14, written by Peter Selinger 2001-2017
</metadata>
<g transform="translate(0.000000,611.000000) scale(0.100000,-0.100000)"
fill="#000000" stroke="none">
<path d="M3255 6038 c-26 -276 -137 -608 -296 -885 -60 -106 -201 -315 -207
-309 -2 2 2 41 8 87 21 168 12 373 -27 637 -20 135 -37 148 -46 35 -14 -181
-77 -421 -159 -608 -61 -139 -129 -253 -240 -401 -202 -272 -284 -458 -309
-705 -16 -168 10 -357 71 -517 19 -50 88 -188 129 -259 l18 -33 -259 -787
c-142 -434 -353 -1072 -468 -1419 -116 -347 -210 -636 -210 -642 0 -7 37 -47
82 -89 46 -43 96 -91 112 -106 l29 -29 126 21 c69 11 150 23 179 27 29 4 62
14 74 23 14 12 56 128 143 392 67 205 267 813 443 1349 176 536 326 994 331
1016 14 52 16 54 123 98 157 64 260 136 409 285 174 174 294 357 436 663 135
291 246 461 400 609 109 105 192 162 300 206 117 48 218 66 326 58 52 -3 87
-2 87 4 0 16 -99 99 -146 121 -62 31 -193 31 -283 0 -123 -41 -191 -80 -443
-253 -154 -107 -220 -138 -303 -145 -58 -4 -66 -2 -88 21 -39 38 -49 92 -37
190 31 250 154 533 313 718 101 118 231 209 392 274 l40 16 -29 16 c-43 23
-165 13 -236 -20 -168 -77 -349 -234 -621 -540 l-34 -38 0 213 c0 228 -9 313
-56 553 -37 185 -47 225 -58 225 -5 0 -12 -33 -16 -72z m-191 -910 c13 -151
-42 -428 -159 -798 -25 -79 -44 -148 -42 -153 1 -5 33 36 69 90 136 201 301
336 462 379 61 16 76 17 76 4 0 -5 -6 -10 -13 -10 -21 0 -115 -68 -170 -125
-98 -99 -156 -248 -142 -368 13 -121 77 -279 120 -299 19 -9 30 -7 58 11 41
25 95 83 134 143 15 24 28 45 30 47 27 39 -37 -256 -94 -428 -42 -129 -117
-289 -177 -379 -72 -109 -214 -232 -267 -232 -6 0 16 29 49 64 170 182 208
390 127 694 -45 168 -115 266 -223 315 -101 45 -286 30 -377 -30 -169 -111
-310 -301 -346 -465 -15 -71 -7 -237 15 -297 9 -24 14 -46 12 -48 -7 -8 -67
96 -87 153 -30 83 -36 229 -14 314 47 185 221 387 479 560 139 93 235 208 321
385 73 150 135 381 135 506 0 67 17 43 24 -33z"/>
</g>
</svg>
