<svg xmlns="http://www.w3.org/2000/svg" xmlns:xlink="http://www.w3.org/1999/xlink" preserveAspectRatio="xMidYMid" width="675" height="231" viewBox="0 0 225 77">
  <defs>
    <style>

      .cls-2 {
        fill: #000000;
      }
    </style>
  </defs>
  <path d="M219.165,54.854 C219.165,54.854 215.768,54.854 215.768,54.854 C215.768,54.854 210.132,54.962 210.132,54.962 C209.842,54.456 209.818,54.023 210.059,53.661 C211.119,53.565 211.649,53.336 211.649,52.975 C211.649,52.855 211.625,52.722 211.577,52.577 C211.216,52.288 210.710,51.807 210.059,51.132 C210.035,50.940 209.758,50.590 209.228,50.084 C207.975,48.904 206.229,47.362 203.989,45.459 C203.531,44.953 202.845,44.255 201.929,43.364 C201.327,42.978 200.592,42.412 199.725,41.665 C200.110,41.569 200.291,41.521 200.267,41.521 C200.267,41.521 201.098,41.810 201.098,41.810 C201.122,41.834 201.424,41.918 202.002,42.063 C201.761,41.581 201.182,41.208 200.267,40.943 C200.146,40.895 199.966,40.708 199.725,40.383 C199.484,40.057 199.219,39.907 198.930,39.931 C198.930,40.100 199.062,40.220 199.328,40.292 C199.279,40.485 199.195,40.702 199.075,40.943 C198.786,40.822 198.388,40.617 197.883,40.328 C197.786,40.160 197.617,39.943 197.377,39.678 C197.039,39.582 196.582,39.365 196.004,39.028 C195.787,38.691 195.377,38.137 194.775,37.365 C194.414,37.125 193.895,36.728 193.221,36.173 C192.836,35.812 192.258,35.366 191.487,34.836 C191.198,35.029 191.101,35.764 191.198,37.040 C191.270,37.739 191.366,38.799 191.487,40.220 C191.438,41.039 191.390,42.256 191.342,43.869 C191.415,44.592 191.535,45.676 191.704,47.121 C191.824,47.603 191.980,48.290 192.174,49.181 C192.149,49.567 192.197,50.097 192.318,50.771 C193.041,51.999 194.052,52.734 195.353,52.975 C195.907,53.047 196.630,53.264 197.521,53.625 C197.545,54.252 197.485,54.625 197.341,54.745 C196.883,54.769 196.112,54.854 195.028,54.998 C195.028,54.998 191.776,54.998 191.776,54.998 C191.728,54.998 191.402,54.938 190.800,54.818 C190.198,54.697 189.801,54.637 189.608,54.637 C189.078,54.589 188.271,54.613 187.187,54.709 C186.007,54.829 185.453,54.890 185.525,54.890 C185.525,54.890 180.900,54.890 180.900,54.890 C180.490,55.010 180.033,55.010 179.527,54.890 C178.949,54.745 178.660,54.456 178.660,54.023 C178.660,53.927 178.672,53.830 178.696,53.734 C178.792,53.541 179.141,53.397 179.744,53.300 C180.539,53.180 181.081,53.047 181.370,52.903 C182.020,52.566 182.598,51.951 183.104,51.060 C183.297,50.698 183.477,49.711 183.646,48.097 C183.766,47.013 183.911,45.375 184.080,43.183 C184.008,42.051 183.959,40.365 183.935,38.124 C183.959,37.835 184.248,37.270 184.802,36.426 C184.802,36.498 184.670,36.372 184.405,36.047 C184.140,35.721 184.008,35.330 184.008,34.872 C184.008,34.872 184.008,31.331 184.008,31.331 C184.008,29.790 184.031,29.091 184.080,29.236 C183.791,28.224 183.851,26.899 184.260,25.261 C184.405,24.779 184.284,24.285 183.899,23.780 C183.899,23.780 183.899,21.033 183.899,21.033 C183.899,20.877 183.893,20.784 183.883,20.742 C184.029,20.564 184.116,20.416 184.116,20.311 C184.116,20.311 184.116,15.397 184.116,15.397 C184.116,14.819 183.983,14.120 183.718,13.301 C183.381,12.266 182.960,11.627 182.454,11.386 C181.755,11.049 180.562,10.772 178.877,10.555 C178.828,10.410 178.804,10.290 178.804,10.194 C178.804,9.543 179.334,9.242 180.394,9.290 C180.394,9.290 186.139,9.615 186.139,9.615 C186.139,9.615 188.994,9.615 188.994,9.615 C189.018,9.615 189.265,9.574 189.735,9.489 C190.204,9.405 190.620,9.363 190.981,9.363 C193.872,9.363 195.654,9.326 196.329,9.254 C196.497,9.495 196.582,9.736 196.582,9.977 C196.582,10.001 196.569,10.109 196.546,10.302 C196.546,10.495 196.546,10.615 196.546,10.663 C195.847,10.808 195.148,10.952 194.450,11.097 C193.534,11.410 192.824,11.988 192.318,12.831 C192.270,12.928 192.161,13.590 191.993,14.819 C191.824,15.758 191.583,17.167 191.270,19.046 C191.246,19.191 191.282,19.480 191.379,19.913 C191.523,20.419 191.595,20.829 191.595,21.142 C191.595,21.190 191.541,21.299 191.433,21.467 C191.324,21.636 191.270,21.756 191.270,21.828 C191.222,22.190 191.258,22.611 191.379,23.093 C191.282,23.647 191.198,24.382 191.126,25.297 C191.126,25.321 191.246,26.068 191.487,27.537 C191.366,28.236 191.402,29.284 191.595,30.681 C191.668,30.633 191.980,30.392 192.535,29.958 C192.896,29.573 193.426,28.995 194.125,28.224 C196.533,25.791 198.172,24.069 199.039,23.057 C199.279,22.912 199.653,22.648 200.159,22.262 C202.038,20.455 203.531,18.914 204.639,17.637 C204.952,17.300 205.446,16.710 206.121,15.866 C206.506,15.313 206.939,14.554 207.422,13.590 C207.759,12.916 207.686,12.307 207.205,11.765 C206.723,11.223 206.097,10.893 205.326,10.772 C204.699,10.699 204.073,10.615 203.447,10.519 C203.350,10.423 203.302,10.062 203.302,9.435 C204.410,9.122 206.397,9.146 209.264,9.507 C209.457,9.435 209.758,9.375 210.168,9.326 C211.107,9.423 211.564,9.483 211.541,9.507 C213.275,9.435 215.732,9.315 218.912,9.146 C218.912,9.676 218.851,10.182 218.731,10.663 C217.165,10.495 215.696,10.784 214.323,11.531 C213.889,11.940 213.167,12.603 212.155,13.518 C211.986,13.614 211.733,13.771 211.396,13.988 C209.710,15.818 207.337,18.372 204.278,21.648 C204.085,21.720 203.844,21.841 203.555,22.009 C203.098,22.395 201.616,23.900 199.111,26.526 C198.870,26.887 198.473,27.441 197.919,28.188 C197.485,28.598 196.871,29.236 196.076,30.103 C196.293,30.199 196.582,30.368 196.943,30.609 C198.123,31.645 199.304,32.789 200.484,34.041 C200.508,34.186 200.592,34.379 200.737,34.619 C201.556,35.439 202.797,36.619 204.459,38.160 C204.820,38.377 205.374,38.727 206.121,39.208 C206.699,39.618 207.662,40.569 209.011,42.063 C209.469,42.569 209.963,43.015 210.493,43.400 C210.806,43.568 211.264,43.821 211.866,44.158 C212.106,44.496 212.444,44.953 212.878,45.532 C213.046,45.700 214.190,46.664 216.310,48.422 C217.129,49.338 218.346,50.458 219.960,51.782 C220.056,51.903 220.224,52.072 220.466,52.288 C220.995,52.529 221.850,52.903 223.031,53.408 C223.344,53.433 223.777,53.457 224.332,53.481 C224.597,53.842 224.729,54.336 224.729,54.962 C224.729,54.962 219.165,54.854 219.165,54.854 ZM183.883,20.742 C183.861,20.768 183.852,20.789 183.827,20.817 C183.853,20.713 183.871,20.693 183.883,20.742 ZM175.444,49.398 C174.312,50.771 173.107,51.976 171.831,53.011 C171.132,53.565 170.217,54.023 169.085,54.384 C166.170,55.299 163.412,55.757 160.810,55.757 C160.858,55.757 160.400,55.733 159.437,55.685 C158.603,55.615 157.992,55.593 157.581,55.613 C157.614,55.477 157.631,55.060 157.631,54.348 C157.028,53.770 156.233,53.481 155.246,53.481 C154.884,53.481 154.547,53.638 154.234,53.950 C154.282,53.999 154.643,54.167 155.318,54.456 C155.174,54.890 154.884,55.107 154.451,55.107 C153.993,55.107 152.969,54.914 151.380,54.529 C149.308,54.023 147.802,53.445 146.863,52.794 C146.646,52.650 146.405,51.687 146.140,49.904 C145.947,48.483 145.851,46.736 145.851,44.664 C145.851,42.785 145.947,41.256 146.140,40.075 C146.261,40.100 146.646,40.052 147.297,39.931 C147.489,40.172 147.573,40.630 147.550,41.304 C147.525,42.171 147.513,42.593 147.513,42.569 C147.634,43.147 147.814,44.002 148.055,45.134 C148.079,45.303 148.404,45.833 149.031,46.724 C149.392,47.302 150.043,48.097 150.982,49.109 C151.777,49.735 152.849,50.217 154.198,50.554 C154.921,50.771 155.643,51.000 156.366,51.240 C157.281,51.506 158.040,51.638 158.642,51.638 C158.883,51.782 159.063,51.855 159.184,51.855 C159.280,51.855 159.425,51.831 159.618,51.782 C159.810,51.734 159.955,51.710 160.051,51.710 C160.172,51.710 160.630,51.801 161.425,51.981 C162.219,52.162 162.665,52.252 162.761,52.252 C162.857,52.252 163.092,52.114 163.466,51.837 C163.839,51.560 164.122,51.397 164.315,51.349 C164.989,51.204 165.977,51.000 167.278,50.735 C167.952,50.590 168.494,49.940 168.904,48.783 C169.072,48.471 169.313,48.013 169.627,47.410 C169.627,47.242 169.650,46.977 169.699,46.615 C169.747,46.447 169.891,46.146 170.133,45.712 C170.373,45.279 170.494,45.002 170.494,44.881 C170.494,43.990 170.385,43.231 170.169,42.605 C170.048,42.220 169.554,41.364 168.687,40.039 C168.422,39.847 168.037,39.570 167.531,39.208 C165.435,37.522 163.412,36.354 161.461,35.703 C160.931,35.391 160.160,34.969 159.148,34.439 C157.943,33.933 156.005,32.849 153.331,31.187 C153.138,31.115 152.861,30.994 152.500,30.825 C151.777,30.224 151.030,29.441 150.259,28.477 C149.151,27.080 148.549,26.333 148.453,26.237 C148.453,25.900 148.429,25.394 148.381,24.719 C148.236,24.478 148.031,24.081 147.766,23.527 C147.766,23.021 147.730,22.322 147.658,21.431 C147.802,21.238 147.875,21.070 147.875,20.925 C147.609,20.299 147.477,19.998 147.477,20.022 C147.477,20.070 147.730,19.504 148.236,18.323 C148.308,17.794 148.477,17.071 148.742,16.156 C148.838,15.939 149.476,15.252 150.657,14.096 C151.211,14.361 151.464,14.493 151.416,14.493 C151.488,14.181 151.633,13.783 151.849,13.301 C154.065,11.182 156.101,9.881 157.956,9.399 C159.473,9.014 161.509,8.821 164.062,8.821 C164.182,8.821 165.399,8.953 167.712,9.218 C170.024,9.483 171.240,9.615 171.361,9.615 C171.457,9.615 171.993,9.549 172.969,9.417 C173.945,9.285 174.492,9.218 174.613,9.218 C175.287,9.218 175.625,9.507 175.625,10.085 C175.625,10.085 175.083,16.047 175.083,16.047 C175.083,16.047 175.083,19.191 175.083,19.191 C175.083,19.239 175.058,19.660 175.010,20.455 C174.962,21.250 174.938,21.828 174.938,22.190 C174.914,22.190 174.835,22.238 174.703,22.334 C174.571,22.431 174.444,22.479 174.324,22.479 C174.324,22.479 173.493,22.479 173.493,22.479 C173.421,21.708 173.264,20.612 173.023,19.191 C172.276,16.349 170.723,14.506 168.362,13.662 C167.134,13.229 164.977,13.012 161.894,13.012 C161.316,13.012 160.328,13.253 158.931,13.735 C157.727,14.145 156.583,15.192 155.499,16.878 C155.113,17.481 154.921,18.131 154.921,18.829 C154.921,19.962 155.294,21.323 156.041,22.912 C156.354,23.201 156.787,23.599 157.342,24.105 C159.004,25.767 161.473,27.273 164.749,28.621 C169.928,30.741 173.529,33.078 175.552,35.631 C176.299,36.571 176.805,37.667 177.070,38.919 C177.383,40.389 177.540,41.882 177.540,43.400 C177.540,43.930 177.256,44.971 176.691,46.525 C176.124,48.079 175.709,49.036 175.444,49.398 ZM157.522,55.613 C157.538,55.612 157.565,55.613 157.581,55.613 C157.565,55.679 157.546,55.684 157.522,55.613 ZM146.081,63.604 C146.081,63.604 144.639,63.604 144.639,63.604 C144.639,63.604 144.639,66.417 144.639,66.417 C144.639,66.529 144.655,66.632 144.687,66.727 C144.720,66.822 144.770,66.904 144.840,66.973 C144.909,67.043 144.998,67.097 145.106,67.136 C145.215,67.175 145.345,67.194 145.497,67.194 C145.602,67.194 145.713,67.186 145.830,67.169 C145.947,67.152 146.054,67.130 146.153,67.103 C146.153,67.103 146.153,67.763 146.153,67.763 C146.085,67.790 145.982,67.815 145.843,67.839 C145.704,67.863 145.538,67.876 145.345,67.880 C145.091,67.880 144.871,67.848 144.685,67.786 C144.499,67.723 144.344,67.633 144.220,67.517 C144.097,67.400 144.004,67.258 143.944,67.093 C143.883,66.927 143.852,66.742 143.852,66.539 C143.852,66.539 143.852,63.604 143.852,63.604 C143.852,63.604 142.923,63.604 142.923,63.604 C142.923,63.604 142.923,62.928 142.923,62.928 C142.923,62.928 143.852,62.928 143.852,62.928 C143.852,62.928 143.852,61.608 143.852,61.608 C143.852,61.608 144.639,61.608 144.639,61.608 C144.639,61.608 144.639,62.928 144.639,62.928 C144.639,62.928 146.081,62.928 146.081,62.928 C146.081,62.928 146.081,63.604 146.081,63.604 ZM140.648,15.433 C139.732,15.650 139.154,16.060 138.914,16.661 C138.721,16.950 138.480,17.360 138.191,17.890 C138.143,18.059 137.830,19.456 137.252,22.081 C137.252,22.081 137.107,37.257 137.107,37.257 C136.938,37.884 136.854,38.221 136.854,38.269 C136.854,38.269 137.107,39.028 137.107,39.028 C137.107,39.028 137.035,44.628 137.035,44.628 C136.866,45.399 136.866,46.459 137.035,47.808 C137.203,49.374 137.541,50.651 138.047,51.638 C138.215,51.976 138.637,52.349 139.311,52.758 C140.563,53.481 141.816,53.830 143.069,53.806 C143.045,54.119 142.912,54.577 142.672,55.179 C142.672,55.179 138.480,55.179 138.480,55.179 C138.408,55.179 137.992,55.155 137.234,55.107 C136.475,55.058 136.071,55.034 136.023,55.034 C135.951,55.034 135.626,55.058 135.048,55.107 C134.469,55.155 134.156,55.179 134.108,55.179 C134.060,55.179 133.837,55.155 133.440,55.107 C133.042,55.058 132.807,55.034 132.735,55.034 C132.663,55.034 132.500,55.058 132.247,55.107 C131.994,55.155 131.832,55.179 131.759,55.179 C131.759,55.179 124.208,55.360 124.208,55.360 C123.833,55.360 123.579,55.270 123.420,55.110 C123.247,55.151 123.058,55.179 122.835,55.179 C122.642,55.179 122.449,55.143 122.257,55.071 C121.678,54.805 121.016,54.649 120.269,54.601 C119.739,54.553 119.053,54.553 118.210,54.601 C117.174,54.625 116.499,54.637 116.186,54.637 C112.790,54.565 110.808,54.583 110.242,54.691 C109.676,54.800 108.779,54.914 107.550,55.034 C106.467,55.130 105.792,54.914 105.527,54.384 C105.455,54.216 105.491,53.981 105.635,53.679 C105.780,53.379 105.973,53.204 106.214,53.156 C106.286,53.132 107.213,53.035 108.996,52.866 C110.369,52.722 111.212,51.566 111.525,49.398 C111.573,47.952 111.645,45.773 111.742,42.858 C111.742,42.689 111.700,42.412 111.615,42.027 C111.531,41.642 111.489,41.364 111.489,41.196 C111.537,39.221 111.381,36.414 111.019,32.777 C111.019,32.777 111.019,29.922 111.019,29.922 C111.019,29.874 110.916,29.434 110.712,28.603 C110.507,27.772 110.393,27.176 110.369,26.815 C110.248,25.201 110.212,24.093 110.260,23.490 C110.260,23.467 110.327,23.226 110.459,22.768 C110.591,22.311 110.658,21.925 110.658,21.612 C110.658,21.106 110.501,20.721 110.188,20.455 C109.610,20.865 109.176,21.624 108.887,22.732 C108.671,23.069 108.405,23.551 108.092,24.177 C107.996,24.635 107.815,25.297 107.550,26.164 C107.430,26.333 107.237,26.634 106.972,27.068 C106.924,27.333 106.828,27.694 106.683,28.152 C106.250,29.043 105.611,30.344 104.768,32.054 C104.720,32.392 104.624,32.897 104.479,33.572 C104.262,33.861 104.021,34.234 103.757,34.692 C103.708,35.053 103.576,35.535 103.359,36.137 C102.925,36.884 102.323,38.028 101.552,39.570 C101.480,40.052 101.311,40.750 101.047,41.665 C100.926,41.810 100.758,42.027 100.541,42.316 C100.516,42.388 100.348,42.906 100.035,43.869 C99.842,44.183 99.613,44.628 99.348,45.206 C99.276,45.544 99.132,46.062 98.915,46.760 C98.722,47.001 98.493,47.399 98.228,47.952 C98.228,47.977 97.493,49.687 96.024,53.083 C96.000,53.541 95.747,54.167 95.265,54.962 C95.241,54.962 94.699,55.022 93.639,55.143 C92.989,55.215 92.483,55.064 92.122,54.691 C91.760,54.318 91.194,53.264 90.424,51.530 C90.038,50.783 89.508,49.675 88.834,48.205 C88.593,47.435 88.231,46.399 87.750,45.098 C87.677,44.930 86.377,42.388 83.847,37.474 C83.775,37.161 83.642,36.715 83.450,36.137 C82.269,33.873 80.559,30.296 78.319,25.406 C78.102,24.442 77.669,23.033 77.018,21.178 C76.392,19.901 75.729,19.263 75.031,19.263 C74.838,19.432 74.742,20.070 74.742,21.178 C74.838,21.467 74.934,21.901 75.031,22.479 C75.055,22.792 75.043,23.238 74.995,23.816 C74.971,24.515 74.959,24.840 74.959,24.791 C74.959,24.791 74.959,28.260 74.959,28.260 C74.959,28.260 74.055,41.882 74.055,41.882 C74.055,41.882 74.055,44.881 74.055,44.881 C74.055,44.664 74.037,44.917 74.001,45.640 C73.965,46.363 73.947,47.543 73.947,49.181 C73.971,49.615 74.092,50.193 74.308,50.915 C74.910,51.903 75.488,52.566 76.043,52.903 C76.524,52.999 77.259,53.240 78.247,53.625 C78.608,53.818 78.717,54.155 78.572,54.637 C78.090,55.191 76.717,55.323 74.453,55.034 C74.453,55.034 71.165,55.034 71.165,55.034 C70.514,55.034 70.020,55.058 69.683,55.107 C68.093,55.275 66.467,55.347 64.805,55.323 C64.589,55.179 64.444,54.926 64.372,54.565 C64.300,54.155 64.408,53.878 64.697,53.734 C64.817,53.661 65.371,53.565 66.359,53.445 C66.576,53.324 66.865,53.156 67.226,52.939 C68.383,52.385 69.165,51.313 69.575,49.723 C69.671,49.338 69.815,48.085 70.009,45.965 C70.129,45.652 70.285,45.206 70.478,44.628 C70.646,43.761 70.731,43.171 70.731,42.858 C70.731,42.858 70.731,40.112 70.731,40.112 C70.731,40.016 70.761,39.871 70.821,39.678 C70.881,39.485 70.912,39.365 70.912,39.317 C70.888,37.848 71.080,35.703 71.490,32.885 C71.538,32.693 71.598,31.886 71.671,30.464 C71.767,28.007 71.791,26.345 71.743,25.478 C71.743,25.382 71.779,25.171 71.851,24.845 C71.924,24.520 71.960,24.322 71.960,24.249 C71.960,24.249 71.960,19.191 71.960,19.191 C71.960,19.095 72.086,18.739 72.339,18.125 C72.592,17.511 72.755,17.083 72.827,16.842 C72.923,16.408 72.923,15.891 72.827,15.288 C72.634,14.927 72.357,14.385 71.996,13.662 C71.972,13.157 71.671,12.519 71.092,11.747 C70.779,11.699 70.321,11.627 69.719,11.531 C69.117,11.435 68.316,11.290 67.317,11.097 C66.317,10.904 65.781,10.796 65.709,10.772 C65.034,10.579 64.685,10.266 64.661,9.832 C65.239,9.326 66.215,9.158 67.588,9.326 C68.599,9.471 69.972,9.664 71.707,9.905 C71.924,9.929 72.272,9.905 72.755,9.832 C73.356,9.712 73.778,9.652 74.019,9.652 C74.139,9.628 75.513,9.700 78.138,9.868 C78.861,9.893 79.439,10.627 79.873,12.073 C80.065,12.386 80.379,12.976 80.812,13.843 C80.932,14.301 81.137,14.963 81.426,15.830 C81.836,16.192 82.330,16.782 82.908,17.601 C82.932,18.059 82.992,18.721 83.089,19.588 C83.281,19.853 83.510,20.227 83.775,20.708 C85.702,25.068 87.520,29.344 89.231,33.535 C89.640,34.547 90.068,35.734 90.514,37.094 C90.959,38.456 91.616,39.967 92.483,41.629 C92.844,42.015 93.302,42.605 93.856,43.400 C93.928,43.496 94.037,43.990 94.181,44.881 C94.302,45.436 94.566,45.748 94.976,45.821 C95.265,45.773 95.494,45.592 95.663,45.279 C96.409,43.858 97.264,41.738 98.228,38.919 C99.191,36.101 100.131,33.824 101.047,32.090 C101.143,31.729 101.311,31.175 101.552,30.428 C101.745,29.994 102.046,29.332 102.456,28.441 C102.479,28.345 102.606,28.170 102.835,27.917 C103.064,27.664 103.202,27.478 103.251,27.357 C103.323,26.851 103.491,26.141 103.757,25.225 C103.757,25.225 104.768,22.912 104.768,22.912 C105.130,22.407 105.731,21.552 106.575,20.347 C106.647,20.275 106.779,19.697 106.972,18.613 C106.996,18.492 107.719,16.710 109.140,13.265 C109.164,12.831 109.297,12.169 109.538,11.278 C110.188,9.809 111.634,9.267 113.874,9.652 C114.139,9.796 114.548,9.953 115.102,10.121 C116.860,10.290 118.137,10.278 118.932,10.085 C119.414,10.085 120.089,10.037 120.956,9.941 C121.148,9.820 121.473,9.658 121.931,9.453 C122.389,9.249 122.883,9.230 123.413,9.399 C123.678,9.495 123.822,9.688 123.846,9.977 C123.919,10.724 123.545,11.182 122.726,11.350 C122.027,11.446 121.329,11.543 120.631,11.639 C120.437,11.783 120.107,12.013 119.637,12.325 C119.167,12.639 118.522,13.193 117.704,13.988 C117.680,14.036 117.475,14.915 117.090,16.625 C116.776,18.023 116.812,20.118 117.198,22.912 C117.366,24.213 117.475,25.406 117.523,26.490 C117.523,27.646 117.559,29.416 117.632,31.801 C117.632,31.729 117.583,33.054 117.487,35.776 C117.438,37.293 117.547,38.799 117.812,40.292 C118.077,41.256 118.354,42.701 118.643,44.628 C118.788,47.182 118.908,48.675 119.005,49.109 C119.269,50.434 119.932,51.542 120.992,52.433 C121.305,52.698 121.715,52.818 122.220,52.794 C122.847,52.746 123.244,52.746 123.413,52.794 C123.702,52.891 123.955,53.108 124.172,53.445 C124.197,53.490 124.191,53.535 124.210,53.580 C124.824,53.469 125.437,53.360 126.050,53.264 C126.941,53.071 127.520,52.746 127.785,52.288 C127.881,51.999 128.025,51.554 128.218,50.951 C128.556,50.976 129.073,51.048 129.772,51.168 C130.013,50.181 130.134,49.542 130.134,49.253 C130.134,48.988 130.013,48.627 129.772,48.169 C129.965,47.688 130.001,47.278 129.881,46.941 C129.784,46.700 129.555,46.290 129.194,45.712 C128.881,45.206 128.724,44.917 128.724,44.845 C128.724,45.014 128.929,44.291 129.339,42.677 C129.387,42.484 129.314,42.207 129.122,41.846 C129.531,41.172 129.736,40.714 129.736,40.473 C129.736,40.425 129.676,39.642 129.555,38.124 C129.555,38.004 129.471,37.775 129.302,37.438 C129.134,37.101 129.050,36.896 129.050,36.823 C129.050,36.728 129.145,36.559 129.339,36.318 C129.290,36.414 129.266,36.282 129.266,35.920 C129.266,35.920 129.266,31.548 129.266,31.548 C129.266,31.476 129.321,31.259 129.429,30.898 C129.537,30.536 129.592,30.320 129.592,30.247 C129.592,30.199 129.555,30.109 129.483,29.976 C129.411,29.844 129.375,29.741 129.375,29.669 C129.375,29.766 129.411,29.224 129.483,28.043 C129.483,27.803 129.435,27.128 129.339,26.020 C129.339,26.020 129.339,23.165 129.339,23.165 C129.339,22.901 129.170,22.515 128.833,22.009 C128.929,21.744 128.856,21.250 128.616,20.528 C128.592,20.191 128.495,19.685 128.327,19.010 C128.134,18.793 127.893,18.480 127.604,18.071 C127.508,17.830 127.339,17.469 127.098,16.987 C126.616,16.240 126.159,15.758 125.725,15.541 C125.171,15.397 124.340,15.132 123.232,14.746 C123.304,14.409 123.437,13.976 123.630,13.446 C123.630,13.446 123.955,13.446 123.955,13.446 C124.027,13.446 124.249,13.470 124.623,13.518 C124.996,13.566 125.219,13.590 125.292,13.590 C125.292,13.590 143.286,13.446 143.286,13.446 C143.189,13.807 143.033,14.313 142.816,14.963 C142.816,14.963 140.648,15.433 140.648,15.433 ZM63.252,38.341 C63.179,39.859 62.842,41.461 62.240,43.147 C61.734,43.773 60.999,44.785 60.036,46.182 C59.770,47.121 59.084,48.483 57.976,50.265 C57.157,51.301 55.760,52.710 53.785,54.492 C51.472,55.938 48.642,57.528 45.294,59.262 C45.510,60.008 46.233,60.852 47.462,61.791 C48.979,62.923 49.846,63.622 50.063,63.887 C50.280,64.007 50.605,64.164 51.039,64.357 C51.207,64.429 51.026,64.899 50.497,65.766 C50.978,65.790 51.629,65.464 52.448,64.790 C52.592,64.886 52.857,65.031 53.243,65.224 C54.760,66.067 56.940,67.090 59.783,68.295 C60.650,68.319 61.999,68.415 63.830,68.584 C64.311,68.657 65.131,68.693 66.287,68.693 C66.407,68.693 66.624,68.771 66.937,68.928 C67.250,69.084 67.515,69.174 67.732,69.198 C69.057,69.294 70.659,69.138 72.538,68.729 C72.538,69.316 72.557,69.663 72.594,69.770 C72.055,70.299 70.632,70.795 68.274,71.258 C66.901,71.523 64.829,71.932 62.059,72.487 C61.144,72.679 60.228,72.776 59.313,72.776 C58.711,72.776 56.603,72.438 52.990,71.764 C52.388,71.764 51.496,71.667 50.316,71.475 C50.147,71.306 49.858,71.114 49.449,70.897 C48.196,70.656 46.594,70.089 44.643,69.198 C41.728,67.873 40.150,67.151 39.910,67.031 C39.765,66.765 39.512,66.332 39.151,65.730 C38.838,65.730 38.428,65.633 37.923,65.441 C37.465,64.959 36.754,64.429 35.791,63.851 C35.020,63.417 34.393,62.779 33.912,61.936 C33.719,61.574 33.466,61.370 33.153,61.322 C31.563,61.128 29.443,61.008 26.794,60.960 C25.661,60.960 23.939,60.490 21.627,59.551 C20.181,59.021 18.736,58.491 17.291,57.961 C15.460,57.214 14.003,56.407 12.919,55.540 C6.800,50.554 2.994,45.062 1.501,39.064 C1.019,37.835 0.525,36.005 0.019,33.572 C-0.102,29.597 0.019,26.345 0.381,23.816 C0.573,23.382 0.826,22.780 1.139,22.009 C1.332,21.094 1.669,19.733 2.151,17.926 C2.849,16.818 3.753,15.228 4.861,13.157 C5.029,12.795 5.114,12.386 5.114,11.928 C5.259,11.760 5.571,11.796 6.053,12.036 C6.198,11.627 6.198,11.001 6.053,10.157 C6.463,10.037 7.041,9.772 7.788,9.363 C8.028,8.712 8.631,7.917 9.594,6.978 C11.449,5.966 14.279,4.485 18.086,2.533 C19.073,2.052 20.313,1.643 21.807,1.305 C25.637,0.438 28.251,0.004 29.648,0.004 C29.648,0.004 33.334,0.004 33.334,0.004 C36.176,0.004 38.621,0.281 40.669,0.835 C41.680,1.101 44.089,1.968 47.895,3.437 C48.714,3.943 49.967,4.738 51.653,5.822 C54.086,7.363 56.302,9.507 58.301,12.253 C60.084,14.687 61.252,16.939 61.806,19.010 C62.071,19.348 62.396,19.877 62.782,20.600 C63.456,22.479 63.842,25.261 63.938,28.947 C63.938,29.067 64.010,29.356 64.155,29.814 C64.300,30.272 64.372,30.633 64.372,30.898 C64.372,32.681 64.311,34.041 64.191,34.981 C63.878,35.703 63.564,36.823 63.252,38.341 ZM53.929,32.126 C53.616,28.152 52.845,24.538 51.617,21.286 C50.003,17.071 48.112,13.759 45.944,11.350 C42.860,7.978 39.500,5.990 35.863,5.388 C32.394,4.810 30.021,4.605 28.745,4.774 C26.239,5.087 24.107,5.641 22.349,6.436 C22.133,6.532 20.711,7.363 18.086,8.929 C17.893,9.242 17.592,9.615 17.182,10.049 C16.941,10.121 16.664,10.218 16.351,10.338 C15.725,11.157 14.954,12.266 14.039,13.662 C13.894,14.048 13.677,14.590 13.388,15.288 C12.906,16.035 12.400,16.927 11.871,17.962 C11.557,19.118 11.124,20.853 10.570,23.165 C10.594,24.057 10.582,25.394 10.534,27.176 C10.534,27.273 10.467,27.478 10.335,27.790 C10.202,28.104 10.148,28.320 10.173,28.441 C10.630,30.488 11.257,33.319 12.051,36.932 C12.027,36.980 11.895,37.004 11.654,37.004 C11.100,37.004 9.690,36.896 7.426,36.679 C6.438,36.607 5.439,36.534 4.427,36.462 C4.475,36.607 5.228,36.914 6.686,37.384 C8.143,37.853 9.305,38.124 10.173,38.197 C10.173,38.197 7.752,39.244 7.752,39.244 C7.752,39.244 9.342,39.714 9.342,39.714 C9.342,39.714 11.582,37.763 11.582,37.763 C11.582,37.763 12.413,38.847 12.413,38.847 C12.678,38.895 12.810,39.004 12.810,39.172 C12.810,39.172 12.846,39.606 12.846,39.606 C12.870,40.016 12.967,40.545 13.135,41.196 C14.460,43.846 15.135,45.206 15.159,45.279 C16.122,46.893 17.423,48.435 19.061,49.904 C19.085,49.928 19.290,50.578 19.675,51.855 C19.796,51.879 20.326,51.963 21.265,52.108 C22.807,53.553 23.987,54.517 24.806,54.998 C25.914,55.672 27.974,56.106 30.985,56.299 C33.370,56.444 35.525,56.431 37.453,56.263 C37.934,56.094 38.585,55.889 39.404,55.649 C40.439,55.432 41.921,54.926 43.848,54.131 C44.306,53.722 44.896,53.228 45.619,52.650 C46.847,51.879 48.022,50.783 49.142,49.362 C50.262,47.941 50.942,46.628 51.183,45.423 C51.520,45.062 51.906,44.532 52.340,43.833 C52.388,43.255 52.472,42.557 52.592,41.738 C52.809,41.545 53.014,41.244 53.207,40.834 C53.255,40.112 53.411,38.546 53.676,36.137 C53.893,34.186 53.977,32.849 53.929,32.126 ZM72.594,69.770 C72.617,69.748 72.663,69.727 72.682,69.704 C72.646,69.813 72.617,69.835 72.594,69.770 ZM79.926,61.821 C80.202,61.510 80.536,61.267 80.929,61.093 C81.322,60.918 81.762,60.831 82.250,60.831 C82.747,60.831 83.193,60.918 83.588,61.093 C83.982,61.267 84.316,61.508 84.591,61.816 C84.865,62.124 85.075,62.490 85.220,62.913 C85.366,63.336 85.439,63.795 85.439,64.289 C85.439,64.614 85.405,64.923 85.337,65.214 C85.269,65.505 85.173,65.773 85.048,66.019 C84.922,66.264 84.772,66.483 84.598,66.676 C84.424,66.869 84.232,67.032 84.022,67.164 C84.022,67.164 84.022,67.184 84.022,67.184 C84.303,67.140 84.568,67.106 84.819,67.082 C85.070,67.059 85.323,67.050 85.581,67.057 C85.581,67.057 85.581,67.803 85.581,67.803 C85.422,67.793 85.249,67.782 85.063,67.770 C84.877,67.759 84.662,67.753 84.418,67.753 C84.235,67.753 84.051,67.758 83.864,67.768 C83.678,67.778 83.494,67.790 83.311,67.803 C83.128,67.817 82.949,67.829 82.773,67.839 C82.596,67.849 82.429,67.854 82.270,67.854 C81.765,67.854 81.314,67.770 80.917,67.600 C80.519,67.431 80.183,67.193 79.909,66.887 C79.634,66.581 79.424,66.212 79.279,65.782 C79.133,65.353 79.060,64.878 79.060,64.361 C79.060,63.843 79.136,63.368 79.286,62.936 C79.437,62.504 79.650,62.133 79.926,61.821 ZM80.114,65.567 C80.234,65.914 80.399,66.204 80.607,66.437 C80.815,66.671 81.060,66.847 81.343,66.966 C81.626,67.084 81.931,67.143 82.260,67.143 C82.585,67.143 82.887,67.084 83.166,66.966 C83.445,66.847 83.689,66.671 83.897,66.437 C84.106,66.204 84.269,65.914 84.387,65.567 C84.506,65.220 84.565,64.818 84.565,64.361 C84.565,63.903 84.506,63.501 84.387,63.152 C84.269,62.803 84.106,62.512 83.897,62.278 C83.689,62.045 83.444,61.868 83.161,61.748 C82.878,61.628 82.575,61.568 82.250,61.568 C81.925,61.568 81.621,61.628 81.338,61.748 C81.055,61.868 80.810,62.045 80.602,62.278 C80.393,62.512 80.230,62.803 80.112,63.152 C79.993,63.501 79.934,63.903 79.934,64.361 C79.934,64.818 79.994,65.220 80.114,65.567 ZM87.739,67.753 C87.739,67.753 86.952,67.753 86.952,67.753 C86.952,67.753 86.952,60.400 86.952,60.400 C86.952,60.400 87.739,60.400 87.739,60.400 C87.739,60.400 87.739,67.753 87.739,67.753 ZM90.049,65.884 C90.049,66.151 90.085,66.375 90.156,66.554 C90.237,66.757 90.369,66.917 90.550,67.034 C90.731,67.151 90.962,67.209 91.243,67.209 C91.541,67.209 91.780,67.145 91.961,67.016 C92.142,66.888 92.272,66.715 92.350,66.498 C92.407,66.333 92.436,66.128 92.436,65.884 C92.436,65.884 92.436,62.928 92.436,62.928 C92.436,62.928 93.223,62.928 93.223,62.928 C93.223,62.928 93.223,65.894 93.223,65.894 C93.223,66.057 93.214,66.208 93.195,66.349 C93.177,66.489 93.147,66.619 93.107,66.737 C93.046,66.903 92.962,67.056 92.855,67.197 C92.749,67.337 92.617,67.458 92.462,67.560 C92.306,67.661 92.126,67.740 91.921,67.796 C91.716,67.852 91.485,67.880 91.228,67.880 C90.977,67.880 90.752,67.853 90.552,67.798 C90.352,67.744 90.177,67.668 90.027,67.570 C89.876,67.472 89.748,67.354 89.643,67.217 C89.538,67.080 89.455,66.930 89.394,66.768 C89.347,66.646 89.313,66.512 89.293,66.366 C89.273,66.221 89.262,66.062 89.262,65.889 C89.262,65.889 89.262,62.928 89.262,62.928 C89.262,62.928 90.049,62.928 90.049,62.928 C90.049,62.928 90.049,65.884 90.049,65.884 ZM95.534,63.380 C95.534,63.380 95.549,63.380 95.549,63.380 C95.722,63.198 95.923,63.055 96.153,62.954 C96.384,62.852 96.646,62.802 96.940,62.802 C97.076,62.802 97.222,62.817 97.380,62.847 C97.537,62.878 97.693,62.930 97.847,63.005 C98.001,63.079 98.149,63.177 98.291,63.299 C98.433,63.421 98.559,63.573 98.667,63.754 C98.775,63.935 98.862,64.150 98.926,64.399 C98.990,64.647 99.023,64.934 99.023,65.259 C99.023,65.710 98.962,66.099 98.840,66.427 C98.718,66.756 98.557,67.027 98.357,67.242 C98.157,67.457 97.929,67.617 97.672,67.722 C97.414,67.827 97.149,67.880 96.874,67.880 C96.668,67.880 96.486,67.853 96.329,67.801 C96.171,67.749 96.037,67.686 95.927,67.613 C95.817,67.540 95.729,67.467 95.663,67.392 C95.597,67.318 95.551,67.258 95.524,67.214 C95.524,67.214 95.508,67.214 95.508,67.214 C95.508,67.214 95.341,67.753 95.341,67.753 C95.341,67.753 94.747,67.753 94.747,67.753 C94.747,67.753 94.747,60.400 94.747,60.400 C94.747,60.400 95.534,60.400 95.534,60.400 C95.534,60.400 95.534,63.380 95.534,63.380 ZM95.534,66.549 C95.581,66.614 95.643,66.684 95.719,66.760 C95.795,66.836 95.886,66.907 95.991,66.973 C96.096,67.039 96.213,67.095 96.344,67.141 C96.474,67.187 96.617,67.209 96.773,67.209 C97.007,67.209 97.212,67.164 97.390,67.072 C97.568,66.981 97.717,66.851 97.837,66.684 C97.957,66.516 98.048,66.316 98.108,66.085 C98.169,65.853 98.200,65.598 98.200,65.320 C98.200,64.938 98.155,64.627 98.065,64.388 C97.976,64.150 97.860,63.964 97.720,63.830 C97.579,63.696 97.430,63.604 97.271,63.553 C97.111,63.502 96.952,63.477 96.793,63.477 C96.549,63.477 96.320,63.528 96.105,63.629 C95.890,63.731 95.700,63.863 95.534,64.025 C95.534,64.025 95.534,66.549 95.534,66.549 ZM101.105,63.380 C101.105,63.380 101.120,63.380 101.120,63.380 C101.292,63.198 101.494,63.055 101.724,62.954 C101.954,62.852 102.217,62.802 102.511,62.802 C102.647,62.802 102.793,62.817 102.950,62.847 C103.108,62.878 103.264,62.930 103.418,63.005 C103.572,63.079 103.720,63.177 103.862,63.299 C104.004,63.421 104.129,63.573 104.238,63.754 C104.346,63.935 104.432,64.150 104.497,64.399 C104.561,64.647 104.593,64.934 104.593,65.259 C104.593,65.710 104.532,66.099 104.410,66.427 C104.289,66.756 104.128,67.027 103.928,67.242 C103.728,67.457 103.500,67.617 103.242,67.722 C102.985,67.827 102.719,67.880 102.445,67.880 C102.239,67.880 102.057,67.853 101.899,67.801 C101.742,67.749 101.608,67.686 101.498,67.613 C101.388,67.540 101.300,67.467 101.234,67.392 C101.168,67.318 101.121,67.258 101.094,67.214 C101.094,67.214 101.079,67.214 101.079,67.214 C101.079,67.214 100.912,67.753 100.912,67.753 C100.912,67.753 100.317,67.753 100.317,67.753 C100.317,67.753 100.317,60.400 100.317,60.400 C100.317,60.400 101.105,60.400 101.105,60.400 C101.105,60.400 101.105,63.380 101.105,63.380 ZM101.105,66.549 C101.152,66.614 101.214,66.684 101.290,66.760 C101.366,66.836 101.457,66.907 101.562,66.973 C101.666,67.039 101.784,67.095 101.915,67.141 C102.045,67.187 102.188,67.209 102.344,67.209 C102.577,67.209 102.783,67.164 102.961,67.072 C103.138,66.981 103.287,66.851 103.407,66.684 C103.528,66.516 103.618,66.316 103.679,66.085 C103.740,65.853 103.771,65.598 103.771,65.320 C103.771,64.938 103.726,64.627 103.636,64.388 C103.546,64.150 103.431,63.964 103.291,63.830 C103.150,63.696 103.000,63.604 102.841,63.553 C102.682,63.502 102.523,63.477 102.364,63.477 C102.120,63.477 101.891,63.528 101.676,63.629 C101.461,63.731 101.270,63.863 101.105,64.025 C101.105,64.025 101.105,66.549 101.105,66.549 ZM103.142,76.753 C103.142,76.753 102.314,76.753 102.314,76.753 C102.314,76.753 102.314,69.958 102.314,69.958 C102.314,69.958 103.142,69.958 103.142,69.958 C103.142,69.958 103.142,76.753 103.142,76.753 ZM108.357,73.746 C108.774,74.346 109.185,74.962 109.591,75.595 C109.591,75.595 109.622,75.595 109.622,75.595 C109.578,74.935 109.556,74.261 109.556,73.574 C109.556,73.574 109.556,69.958 109.556,69.958 C109.556,69.958 110.389,69.958 110.389,69.958 C110.389,69.958 110.389,76.753 110.389,76.753 C110.389,76.753 109.561,76.753 109.561,76.753 C109.561,76.753 106.895,72.964 106.895,72.964 C106.434,72.304 106.023,71.688 105.661,71.116 C105.661,71.116 105.630,71.116 105.630,71.116 C105.674,71.736 105.696,72.458 105.696,73.284 C105.696,73.284 105.696,76.753 105.696,76.753 C105.696,76.753 104.869,76.753 104.869,76.753 C104.869,76.753 104.869,69.958 104.869,69.958 C104.869,69.958 105.691,69.958 105.691,69.958 C105.691,69.958 108.357,73.746 108.357,73.746 ZM109.778,67.753 C109.778,67.753 108.991,67.753 108.991,67.753 C108.991,67.753 108.991,64.650 108.991,64.650 C108.991,64.440 108.968,64.262 108.922,64.114 C108.877,63.967 108.811,63.846 108.724,63.751 C108.638,63.656 108.535,63.587 108.414,63.543 C108.294,63.499 108.160,63.477 108.011,63.477 C107.730,63.477 107.474,63.552 107.244,63.703 C107.014,63.854 106.807,64.061 106.624,64.325 C106.624,64.325 106.624,67.753 106.624,67.753 C106.624,67.753 105.837,67.753 105.837,67.753 C105.837,67.753 105.837,62.928 105.837,62.928 C105.837,62.928 106.447,62.928 106.447,62.928 C106.447,62.928 106.599,63.599 106.599,63.599 C106.599,63.599 106.614,63.599 106.614,63.599 C106.702,63.487 106.798,63.383 106.901,63.287 C107.004,63.190 107.120,63.105 107.247,63.033 C107.373,62.960 107.513,62.903 107.665,62.862 C107.818,62.822 107.984,62.802 108.163,62.802 C108.522,62.802 108.820,62.888 109.057,63.061 C109.294,63.233 109.477,63.469 109.605,63.766 C109.605,63.766 109.626,63.766 109.626,63.766 C109.839,63.465 110.083,63.229 110.358,63.058 C110.633,62.887 110.953,62.802 111.319,62.802 C111.489,62.802 111.668,62.825 111.858,62.873 C112.048,62.920 112.223,63.007 112.382,63.134 C112.541,63.261 112.674,63.436 112.779,63.660 C112.884,63.883 112.937,64.171 112.937,64.523 C112.937,64.523 112.937,67.753 112.937,67.753 C112.937,67.753 112.149,67.753 112.149,67.753 C112.149,67.753 112.149,64.650 112.149,64.650 C112.149,64.440 112.127,64.262 112.081,64.114 C112.035,63.967 111.969,63.846 111.883,63.751 C111.797,63.656 111.693,63.587 111.573,63.543 C111.453,63.499 111.318,63.477 111.169,63.477 C110.888,63.477 110.632,63.552 110.400,63.703 C110.168,63.854 109.961,64.061 109.778,64.325 C109.778,64.325 109.778,67.753 109.778,67.753 ZM112.971,76.209 C113.157,76.209 113.325,76.192 113.474,76.159 C113.624,76.125 113.753,76.075 113.861,76.009 C113.969,75.943 114.052,75.860 114.110,75.760 C114.168,75.660 114.197,75.544 114.197,75.412 C114.197,75.277 114.171,75.165 114.117,75.077 C114.064,74.989 113.993,74.916 113.903,74.859 C113.813,74.801 113.709,74.754 113.591,74.716 C113.473,74.679 113.350,74.645 113.220,74.615 C113.051,74.578 112.879,74.534 112.704,74.483 C112.530,74.432 112.371,74.361 112.228,74.270 C112.085,74.178 111.970,74.054 111.882,73.896 C111.794,73.739 111.750,73.537 111.750,73.289 C111.750,73.036 111.795,72.816 111.887,72.629 C111.978,72.443 112.102,72.289 112.257,72.167 C112.413,72.045 112.594,71.954 112.801,71.893 C113.007,71.832 113.225,71.802 113.456,71.802 C113.723,71.802 113.971,71.827 114.200,71.878 C114.428,71.928 114.636,71.993 114.822,72.071 C114.822,72.071 114.822,72.741 114.822,72.741 C114.624,72.663 114.423,72.600 114.220,72.551 C114.017,72.502 113.808,72.475 113.593,72.472 C113.411,72.472 113.256,72.491 113.127,72.528 C112.998,72.565 112.893,72.617 112.810,72.683 C112.727,72.749 112.667,72.827 112.629,72.916 C112.591,73.006 112.572,73.105 112.572,73.213 C112.572,73.345 112.600,73.454 112.657,73.538 C112.713,73.623 112.788,73.691 112.882,73.744 C112.977,73.796 113.086,73.840 113.210,73.873 C113.334,73.907 113.462,73.938 113.595,73.965 C113.777,74.005 113.949,74.050 114.111,74.099 C114.273,74.149 114.423,74.222 114.561,74.320 C114.698,74.419 114.809,74.551 114.893,74.719 C114.978,74.887 115.020,75.104 115.020,75.371 C115.020,75.615 114.972,75.831 114.878,76.019 C114.783,76.207 114.649,76.364 114.476,76.491 C114.304,76.618 114.097,76.715 113.857,76.781 C113.617,76.847 113.352,76.880 113.065,76.880 C112.889,76.880 112.729,76.870 112.585,76.852 C112.441,76.833 112.314,76.809 112.204,76.781 C112.094,76.752 112.000,76.722 111.922,76.692 C111.844,76.661 111.780,76.633 111.729,76.605 C111.729,76.605 111.729,75.945 111.729,75.945 C111.929,76.027 112.126,76.091 112.322,76.138 C112.519,76.186 112.735,76.209 112.971,76.209 ZM114.856,60.958 C114.856,60.958 115.664,60.958 115.664,60.958 C115.664,60.958 115.664,61.806 115.664,61.806 C115.664,61.806 114.856,61.806 114.856,61.806 C114.856,61.806 114.856,60.958 114.856,60.958 ZM116.791,60.958 C116.791,60.958 117.598,60.958 117.598,60.958 C117.598,60.958 117.598,61.806 117.598,61.806 C117.598,61.806 116.791,61.806 116.791,61.806 C116.791,61.806 116.791,60.958 116.791,60.958 ZM114.292,66.981 C114.214,66.788 114.176,66.570 114.176,66.326 C114.176,66.085 114.219,65.870 114.305,65.681 C114.391,65.491 114.512,65.330 114.668,65.198 C114.824,65.066 115.011,64.965 115.229,64.894 C115.448,64.823 115.689,64.787 115.953,64.787 C116.203,64.791 116.435,64.812 116.649,64.853 C116.862,64.894 117.052,64.945 117.217,65.005 C117.217,65.005 117.238,65.005 117.238,65.005 C117.238,65.005 117.238,64.670 117.238,64.670 C117.238,64.538 117.229,64.421 117.212,64.320 C117.195,64.218 117.167,64.129 117.126,64.051 C117.038,63.888 116.897,63.754 116.705,63.647 C116.512,63.540 116.251,63.487 115.922,63.487 C115.679,63.487 115.449,63.510 115.234,63.556 C115.019,63.601 114.805,63.665 114.592,63.746 C114.592,63.746 114.592,63.086 114.592,63.086 C114.673,63.045 114.769,63.007 114.879,62.972 C114.989,62.936 115.105,62.906 115.227,62.880 C115.349,62.855 115.477,62.835 115.613,62.822 C115.748,62.808 115.884,62.802 116.019,62.802 C116.506,62.802 116.905,62.888 117.215,63.061 C117.525,63.233 117.747,63.462 117.883,63.746 C117.933,63.854 117.970,63.974 117.992,64.104 C118.014,64.234 118.025,64.378 118.025,64.533 C118.025,64.533 118.025,67.753 118.025,67.753 C118.025,67.753 117.365,67.753 117.365,67.753 C117.365,67.753 117.278,67.220 117.278,67.220 C117.278,67.220 117.258,67.220 117.258,67.220 C117.194,67.301 117.112,67.381 117.014,67.461 C116.916,67.540 116.803,67.611 116.674,67.674 C116.545,67.737 116.405,67.787 116.253,67.824 C116.100,67.861 115.938,67.880 115.765,67.880 C115.531,67.880 115.317,67.845 115.123,67.776 C114.928,67.706 114.760,67.605 114.620,67.471 C114.479,67.337 114.370,67.174 114.292,66.981 ZM115.069,66.717 C115.116,66.828 115.181,66.921 115.264,66.994 C115.346,67.066 115.444,67.120 115.557,67.156 C115.670,67.192 115.790,67.209 115.918,67.209 C116.087,67.209 116.244,67.185 116.388,67.136 C116.533,67.087 116.662,67.028 116.775,66.961 C116.888,66.893 116.984,66.825 117.063,66.757 C117.143,66.690 117.201,66.637 117.238,66.600 C117.238,66.600 117.238,65.635 117.238,65.635 C117.093,65.595 116.921,65.556 116.722,65.518 C116.523,65.481 116.304,65.461 116.065,65.457 C115.731,65.457 115.470,65.528 115.281,65.671 C115.093,65.813 114.998,66.031 114.998,66.326 C114.998,66.475 115.022,66.605 115.069,66.717 ZM116.603,72.452 C116.805,72.235 117.038,72.072 117.302,71.964 C117.565,71.856 117.840,71.802 118.127,71.802 C118.397,71.802 118.650,71.846 118.885,71.936 C119.119,72.026 119.323,72.167 119.495,72.360 C119.667,72.553 119.803,72.802 119.903,73.107 C120.002,73.411 120.052,73.777 120.052,74.203 C120.052,74.244 120.052,74.279 120.052,74.308 C120.052,74.336 120.050,74.402 120.047,74.503 C120.047,74.503 116.716,74.503 116.716,74.503 C116.716,74.811 116.762,75.073 116.856,75.288 C116.949,75.503 117.076,75.677 117.236,75.811 C117.397,75.945 117.586,76.042 117.803,76.103 C118.019,76.164 118.253,76.194 118.503,76.194 C118.764,76.194 119.002,76.173 119.217,76.131 C119.432,76.088 119.646,76.028 119.859,75.950 C119.859,75.950 119.859,76.605 119.859,76.605 C119.687,76.690 119.473,76.757 119.219,76.806 C118.966,76.855 118.693,76.880 118.402,76.880 C118.057,76.880 117.732,76.836 117.429,76.748 C117.126,76.660 116.864,76.517 116.643,76.321 C116.421,76.125 116.247,75.868 116.122,75.552 C115.997,75.235 115.934,74.853 115.934,74.407 C115.934,73.967 115.995,73.585 116.116,73.262 C116.238,72.938 116.400,72.668 116.603,72.452 ZM119.224,73.828 C119.224,73.638 119.200,73.461 119.150,73.297 C119.100,73.133 119.027,72.990 118.931,72.868 C118.835,72.746 118.717,72.650 118.577,72.581 C118.436,72.512 118.273,72.477 118.088,72.477 C117.906,72.477 117.738,72.512 117.582,72.584 C117.426,72.655 117.289,72.751 117.173,72.873 C117.056,72.995 116.962,73.138 116.890,73.302 C116.818,73.466 116.774,73.642 116.757,73.828 C116.757,73.828 119.224,73.828 119.224,73.828 ZM119.462,67.692 C119.384,67.661 119.320,67.633 119.269,67.605 C119.269,67.605 119.269,66.945 119.269,66.945 C119.468,67.027 119.666,67.091 119.862,67.138 C120.058,67.186 120.274,67.209 120.510,67.209 C120.697,67.209 120.864,67.192 121.014,67.159 C121.164,67.125 121.292,67.075 121.400,67.009 C121.508,66.943 121.591,66.860 121.650,66.760 C121.708,66.660 121.737,66.544 121.737,66.412 C121.737,66.277 121.710,66.165 121.657,66.077 C121.604,65.989 121.533,65.916 121.443,65.859 C121.353,65.801 121.249,65.754 121.131,65.716 C121.013,65.679 120.889,65.645 120.760,65.615 C120.590,65.578 120.418,65.534 120.244,65.483 C120.069,65.432 119.911,65.361 119.768,65.270 C119.625,65.178 119.509,65.054 119.421,64.896 C119.333,64.739 119.289,64.537 119.289,64.289 C119.289,64.036 119.335,63.816 119.426,63.629 C119.518,63.443 119.641,63.289 119.797,63.167 C119.953,63.045 120.134,62.954 120.340,62.893 C120.547,62.832 120.765,62.802 120.996,62.802 C121.263,62.802 121.511,62.827 121.739,62.878 C121.968,62.928 122.175,62.993 122.362,63.071 C122.362,63.071 122.362,63.741 122.362,63.741 C122.163,63.663 121.963,63.600 121.759,63.551 C121.556,63.502 121.347,63.475 121.133,63.472 C120.951,63.472 120.796,63.491 120.667,63.528 C120.538,63.565 120.432,63.617 120.350,63.683 C120.267,63.749 120.207,63.827 120.169,63.916 C120.131,64.006 120.112,64.105 120.112,64.213 C120.112,64.345 120.140,64.454 120.196,64.538 C120.253,64.623 120.328,64.691 120.422,64.744 C120.517,64.796 120.626,64.840 120.750,64.873 C120.874,64.907 121.002,64.938 121.135,64.965 C121.317,65.005 121.489,65.050 121.651,65.099 C121.813,65.149 121.963,65.222 122.100,65.320 C122.238,65.419 122.349,65.551 122.433,65.719 C122.517,65.887 122.560,66.104 122.560,66.371 C122.560,66.615 122.512,66.831 122.417,67.019 C122.323,67.207 122.189,67.364 122.016,67.491 C121.844,67.618 121.637,67.715 121.397,67.781 C121.156,67.847 120.892,67.880 120.605,67.880 C120.428,67.880 120.268,67.870 120.125,67.852 C119.981,67.833 119.854,67.809 119.744,67.781 C119.634,67.752 119.540,67.722 119.462,67.692 ZM122.226,74.082 C122.226,74.082 122.236,74.082 122.236,74.082 C122.236,74.082 124.511,71.928 124.511,71.928 C124.511,71.928 125.537,71.928 125.537,71.928 C125.537,71.928 123.180,74.148 123.180,74.148 C123.180,74.148 125.532,76.753 125.532,76.753 C125.532,76.753 124.551,76.753 124.551,76.753 C124.551,76.753 122.236,74.183 122.236,74.183 C122.236,74.183 122.226,74.183 122.226,74.183 C122.226,74.183 122.226,76.753 122.226,76.753 C122.226,76.753 121.439,76.753 121.439,76.753 C121.439,76.753 121.439,69.400 121.439,69.400 C121.439,69.400 122.226,69.400 122.226,69.400 C122.226,69.400 122.226,74.082 122.226,74.082 ZM124.832,66.727 C124.864,66.822 124.915,66.904 124.984,66.973 C125.054,67.043 125.143,67.097 125.251,67.136 C125.359,67.175 125.490,67.194 125.642,67.194 C125.747,67.194 125.858,67.186 125.975,67.169 C126.091,67.152 126.199,67.130 126.297,67.103 C126.297,67.103 126.297,67.763 126.297,67.763 C126.229,67.790 126.126,67.815 125.987,67.839 C125.848,67.863 125.683,67.876 125.490,67.880 C125.236,67.880 125.016,67.848 124.830,67.786 C124.643,67.723 124.488,67.633 124.365,67.517 C124.241,67.400 124.149,67.258 124.088,67.093 C124.027,66.927 123.997,66.742 123.997,66.539 C123.997,66.539 123.997,63.604 123.997,63.604 C123.997,63.604 123.067,63.604 123.067,63.604 C123.067,63.604 123.067,62.928 123.067,62.928 C123.067,62.928 123.997,62.928 123.997,62.928 C123.997,62.928 123.997,61.608 123.997,61.608 C123.997,61.608 124.784,61.608 124.784,61.608 C124.784,61.608 124.784,62.928 124.784,62.928 C124.784,62.928 126.226,62.928 126.226,62.928 C126.226,62.928 126.226,63.604 126.226,63.604 C126.226,63.604 124.784,63.604 124.784,63.604 C124.784,63.604 124.784,66.417 124.784,66.417 C124.784,66.529 124.800,66.632 124.832,66.727 ZM126.694,70.608 C126.694,70.608 127.482,70.608 127.482,70.608 C127.482,70.608 127.482,71.928 127.482,71.928 C127.482,71.928 128.924,71.928 128.924,71.928 C128.924,71.928 128.924,72.604 128.924,72.604 C128.924,72.604 127.482,72.604 127.482,72.604 C127.482,72.604 127.482,75.417 127.482,75.417 C127.482,75.529 127.498,75.632 127.530,75.727 C127.562,75.822 127.613,75.904 127.682,75.973 C127.751,76.043 127.840,76.097 127.949,76.136 C128.057,76.175 128.187,76.194 128.340,76.194 C128.445,76.194 128.556,76.186 128.672,76.169 C128.789,76.152 128.897,76.130 128.995,76.103 C128.995,76.103 128.995,76.763 128.995,76.763 C128.927,76.790 128.824,76.815 128.685,76.839 C128.546,76.863 128.380,76.876 128.187,76.880 C127.933,76.880 127.713,76.848 127.527,76.786 C127.341,76.723 127.186,76.633 127.063,76.517 C126.939,76.400 126.847,76.258 126.786,76.093 C126.725,75.927 126.694,75.742 126.694,75.539 C126.694,75.539 126.694,72.604 126.694,72.604 C126.694,72.604 125.765,72.604 125.765,72.604 C125.765,72.604 125.765,71.928 125.765,71.928 C125.765,71.928 126.694,71.928 126.694,71.928 C126.694,71.928 126.694,70.608 126.694,70.608 ZM127.793,67.321 C127.571,67.125 127.398,66.868 127.272,66.552 C127.147,66.235 127.084,65.853 127.084,65.407 C127.084,64.967 127.145,64.585 127.267,64.262 C127.388,63.938 127.550,63.668 127.753,63.452 C127.955,63.235 128.188,63.072 128.452,62.964 C128.715,62.856 128.991,62.802 129.278,62.802 C129.548,62.802 129.800,62.846 130.035,62.936 C130.270,63.026 130.473,63.167 130.645,63.360 C130.817,63.553 130.953,63.802 131.053,64.107 C131.153,64.411 131.203,64.777 131.203,65.203 C131.203,65.244 131.203,65.279 131.203,65.308 C131.203,65.336 131.201,65.402 131.197,65.503 C131.197,65.503 127.866,65.503 127.866,65.503 C127.866,65.811 127.913,66.073 128.006,66.288 C128.099,66.503 128.226,66.677 128.387,66.811 C128.547,66.945 128.736,67.042 128.953,67.103 C129.170,67.164 129.403,67.194 129.654,67.194 C129.914,67.194 130.152,67.173 130.367,67.131 C130.582,67.088 130.796,67.028 131.010,66.950 C131.010,66.950 131.010,67.605 131.010,67.605 C130.837,67.690 130.624,67.757 130.370,67.806 C130.116,67.855 129.843,67.880 129.552,67.880 C129.207,67.880 128.883,67.836 128.580,67.748 C128.277,67.660 128.014,67.517 127.793,67.321 ZM130.375,64.828 C130.375,64.638 130.350,64.461 130.300,64.297 C130.251,64.133 130.178,63.990 130.082,63.868 C129.986,63.746 129.867,63.650 129.727,63.581 C129.586,63.512 129.424,63.477 129.239,63.477 C129.057,63.477 128.888,63.512 128.732,63.584 C128.576,63.655 128.440,63.751 128.323,63.873 C128.207,63.995 128.113,64.138 128.041,64.302 C127.968,64.466 127.924,64.642 127.907,64.828 C127.907,64.828 130.375,64.828 130.375,64.828 ZM130.879,70.806 C130.879,70.806 130.092,70.806 130.092,70.806 C130.092,70.806 130.092,69.928 130.092,69.928 C130.092,69.928 130.879,69.928 130.879,69.928 C130.879,69.928 130.879,70.806 130.879,70.806 ZM130.899,76.753 C130.899,76.753 130.112,76.753 130.112,76.753 C130.112,76.753 130.112,71.928 130.112,71.928 C130.112,71.928 130.899,71.928 130.899,71.928 C130.899,71.928 130.899,76.753 130.899,76.753 ZM132.538,67.753 C132.538,67.753 132.538,62.928 132.538,62.928 C132.538,62.928 133.147,62.928 133.147,62.928 C133.147,62.928 133.300,63.695 133.300,63.695 C133.300,63.695 133.315,63.695 133.315,63.695 C133.393,63.570 133.488,63.453 133.602,63.345 C133.715,63.237 133.843,63.142 133.985,63.061 C134.128,62.979 134.283,62.916 134.453,62.870 C134.622,62.824 134.800,62.802 134.986,62.802 C135.020,62.802 135.054,62.802 135.090,62.804 C135.125,62.806 135.157,62.808 135.184,62.812 C135.184,62.812 135.184,63.568 135.184,63.568 C135.184,63.568 135.123,63.568 135.123,63.568 C134.937,63.568 134.754,63.585 134.574,63.619 C134.395,63.653 134.227,63.705 134.069,63.774 C133.912,63.843 133.770,63.929 133.643,64.030 C133.516,64.132 133.410,64.252 133.325,64.391 C133.325,64.391 133.325,67.753 133.325,67.753 C133.325,67.753 132.538,67.753 132.538,67.753 ZM132.816,72.502 C133.014,72.279 133.254,72.106 133.537,71.984 C133.820,71.862 134.135,71.802 134.484,71.802 C134.840,71.802 135.160,71.862 135.444,71.984 C135.728,72.106 135.969,72.279 136.165,72.502 C136.361,72.726 136.512,72.993 136.617,73.305 C136.722,73.616 136.774,73.963 136.774,74.346 C136.774,74.725 136.720,75.070 136.612,75.382 C136.504,75.693 136.350,75.960 136.152,76.181 C135.954,76.403 135.715,76.575 135.434,76.697 C135.153,76.819 134.838,76.880 134.489,76.880 C134.130,76.880 133.810,76.819 133.527,76.697 C133.244,76.575 133.004,76.403 132.806,76.181 C132.608,75.960 132.456,75.693 132.351,75.382 C132.246,75.070 132.194,74.725 132.194,74.346 C132.194,73.963 132.248,73.616 132.356,73.305 C132.465,72.993 132.618,72.726 132.816,72.502 ZM133.126,75.135 C133.199,75.367 133.301,75.563 133.433,75.722 C133.565,75.881 133.721,76.002 133.900,76.085 C134.080,76.168 134.276,76.209 134.489,76.209 C134.703,76.209 134.898,76.168 135.076,76.085 C135.254,76.002 135.408,75.881 135.538,75.722 C135.668,75.563 135.770,75.367 135.843,75.135 C135.915,74.903 135.952,74.640 135.952,74.346 C135.952,74.048 135.915,73.783 135.843,73.551 C135.770,73.319 135.668,73.123 135.538,72.962 C135.408,72.801 135.253,72.679 135.073,72.596 C134.894,72.513 134.698,72.472 134.484,72.472 C134.271,72.472 134.075,72.513 133.895,72.596 C133.716,72.679 133.561,72.801 133.431,72.962 C133.300,73.123 133.199,73.319 133.126,73.551 C133.053,73.783 133.017,74.048 133.017,74.346 C133.017,74.640 133.053,74.903 133.126,75.135 ZM136.052,60.928 C136.052,60.928 136.839,60.928 136.839,60.928 C136.839,60.928 136.839,61.806 136.839,61.806 C136.839,61.806 136.052,61.806 136.052,61.806 C136.052,61.806 136.052,60.928 136.052,60.928 ZM136.860,67.753 C136.860,67.753 136.072,67.753 136.072,67.753 C136.072,67.753 136.072,62.928 136.072,62.928 C136.072,62.928 136.860,62.928 136.860,62.928 C136.860,62.928 136.860,67.753 136.860,67.753 ZM138.780,72.599 C138.780,72.599 138.796,72.599 138.796,72.599 C138.884,72.487 138.981,72.383 139.088,72.287 C139.194,72.190 139.314,72.105 139.446,72.033 C139.578,71.960 139.722,71.903 139.880,71.862 C140.037,71.822 140.209,71.802 140.395,71.802 C140.615,71.802 140.822,71.832 141.015,71.893 C141.208,71.954 141.375,72.052 141.517,72.187 C141.660,72.323 141.772,72.500 141.855,72.718 C141.938,72.937 141.980,73.205 141.980,73.523 C141.980,73.523 141.980,76.753 141.980,76.753 C141.980,76.753 141.192,76.753 141.192,76.753 C141.192,76.753 141.192,73.650 141.192,73.650 C141.192,73.234 141.112,72.934 140.951,72.751 C140.790,72.568 140.556,72.477 140.248,72.477 C139.977,72.477 139.715,72.552 139.461,72.703 C139.207,72.854 138.989,73.061 138.806,73.325 C138.806,73.325 138.806,76.753 138.806,76.753 C138.806,76.753 138.019,76.753 138.019,76.753 C138.019,76.753 138.019,71.928 138.019,71.928 C138.019,71.928 138.628,71.928 138.628,71.928 C138.628,71.928 138.780,72.599 138.780,72.599 ZM139.457,66.811 C139.618,66.945 139.807,67.042 140.023,67.103 C140.240,67.164 140.473,67.194 140.724,67.194 C140.985,67.194 141.222,67.173 141.437,67.131 C141.652,67.088 141.867,67.028 142.080,66.950 C142.080,66.950 142.080,67.605 142.080,67.605 C141.907,67.690 141.694,67.757 141.440,67.806 C141.186,67.855 140.914,67.880 140.622,67.880 C140.277,67.880 139.953,67.836 139.650,67.748 C139.347,67.660 139.085,67.517 138.863,67.321 C138.642,67.125 138.468,66.868 138.343,66.552 C138.217,66.235 138.154,65.853 138.154,65.407 C138.154,64.967 138.215,64.585 138.337,64.262 C138.458,63.938 138.620,63.668 138.823,63.452 C139.026,63.235 139.259,63.072 139.522,62.964 C139.786,62.856 140.061,62.802 140.348,62.802 C140.618,62.802 140.870,62.846 141.105,62.936 C141.340,63.026 141.543,63.167 141.716,63.360 C141.888,63.553 142.024,63.802 142.123,64.107 C142.223,64.411 142.273,64.777 142.273,65.203 C142.273,65.244 142.273,65.279 142.273,65.308 C142.273,65.336 142.271,65.402 142.268,65.503 C142.268,65.503 138.936,65.503 138.936,65.503 C138.936,65.811 138.983,66.073 139.076,66.288 C139.169,66.503 139.296,66.677 139.457,66.811 ZM141.445,64.828 C141.445,64.638 141.420,64.461 141.371,64.297 C141.321,64.133 141.248,63.990 141.152,63.868 C141.056,63.746 140.938,63.650 140.797,63.581 C140.657,63.512 140.494,63.477 140.309,63.477 C140.127,63.477 139.958,63.512 139.802,63.584 C139.646,63.655 139.510,63.751 139.394,63.873 C139.277,63.995 139.183,64.138 139.111,64.302 C139.039,64.466 138.994,64.642 138.977,64.828 C138.977,64.828 141.445,64.828 141.445,64.828 ZM143.892,72.452 C144.095,72.235 144.328,72.072 144.591,71.964 C144.855,71.856 145.130,71.802 145.417,71.802 C145.687,71.802 145.940,71.846 146.174,71.936 C146.409,72.026 146.613,72.167 146.785,72.360 C146.957,72.553 147.093,72.802 147.193,73.107 C147.292,73.411 147.342,73.777 147.342,74.203 C147.342,74.244 147.342,74.279 147.342,74.308 C147.342,74.336 147.340,74.402 147.337,74.503 C147.337,74.503 144.006,74.503 144.006,74.503 C144.006,74.811 144.052,75.073 144.145,75.288 C144.238,75.503 144.365,75.677 144.526,75.811 C144.687,75.945 144.876,76.042 145.092,76.103 C145.309,76.164 145.543,76.194 145.793,76.194 C146.054,76.194 146.292,76.173 146.507,76.131 C146.722,76.088 146.936,76.028 147.149,75.950 C147.149,75.950 147.149,76.605 147.149,76.605 C146.976,76.690 146.763,76.757 146.509,76.806 C146.255,76.855 145.983,76.880 145.692,76.880 C145.346,76.880 145.022,76.836 144.719,76.748 C144.416,76.660 144.154,76.517 143.932,76.321 C143.711,76.125 143.537,75.868 143.412,75.552 C143.286,75.235 143.224,74.853 143.224,74.407 C143.224,73.967 143.284,73.585 143.406,73.262 C143.528,72.938 143.690,72.668 143.892,72.452 ZM146.514,73.828 C146.514,73.638 146.489,73.461 146.440,73.297 C146.390,73.133 146.317,72.990 146.221,72.868 C146.125,72.746 146.007,72.650 145.866,72.581 C145.726,72.512 145.563,72.477 145.378,72.477 C145.196,72.477 145.027,72.512 144.872,72.584 C144.716,72.655 144.579,72.751 144.463,72.873 C144.346,72.995 144.252,73.138 144.180,73.302 C144.108,73.466 144.063,73.642 144.046,73.828 C144.046,73.828 146.514,73.828 146.514,73.828 ZM149.439,72.599 C149.439,72.599 149.455,72.599 149.455,72.599 C149.543,72.487 149.640,72.383 149.747,72.287 C149.853,72.190 149.972,72.105 150.105,72.033 C150.237,71.960 150.381,71.903 150.539,71.862 C150.696,71.822 150.868,71.802 151.054,71.802 C151.274,71.802 151.481,71.832 151.674,71.893 C151.867,71.954 152.034,72.052 152.176,72.187 C152.319,72.323 152.431,72.500 152.514,72.718 C152.597,72.937 152.638,73.205 152.638,73.523 C152.638,73.523 152.638,76.753 152.638,76.753 C152.638,76.753 151.851,76.753 151.851,76.753 C151.851,76.753 151.851,73.650 151.851,73.650 C151.851,73.234 151.771,72.934 151.610,72.751 C151.449,72.568 151.215,72.477 150.907,72.477 C150.636,72.477 150.374,72.552 150.120,72.703 C149.866,72.854 149.647,73.061 149.465,73.325 C149.465,73.325 149.465,76.753 149.465,76.753 C149.465,76.753 148.678,76.753 148.678,76.753 C148.678,76.753 148.678,71.928 148.678,71.928 C148.678,71.928 149.287,71.928 149.287,71.928 C149.287,71.928 149.439,72.599 149.439,72.599 ZM157.173,73.315 C157.173,73.315 157.183,73.315 157.183,73.315 C157.183,73.315 160.306,69.958 160.306,69.958 C160.306,69.958 161.134,69.958 161.134,69.958 C161.134,69.958 157.965,73.340 157.965,73.340 C157.965,73.340 161.322,76.753 161.322,76.753 C161.322,76.753 160.494,76.753 160.494,76.753 C160.494,76.753 157.183,73.427 157.183,73.427 C157.183,73.427 157.173,73.427 157.173,73.427 C157.173,73.427 157.173,76.753 157.173,76.753 C157.173,76.753 156.345,76.753 156.345,76.753 C156.345,76.753 156.345,69.958 156.345,69.958 C156.345,69.958 157.173,69.958 157.173,69.958 C157.173,69.958 157.173,73.315 157.173,73.315 ZM163.353,70.806 C163.353,70.806 162.566,70.806 162.566,70.806 C162.566,70.806 162.566,69.928 162.566,69.928 C162.566,69.928 163.353,69.928 163.353,69.928 C163.353,69.928 163.353,70.806 163.353,70.806 ZM163.374,76.753 C163.374,76.753 162.586,76.753 162.586,76.753 C162.586,76.753 162.586,71.928 162.586,71.928 C162.586,71.928 163.374,71.928 163.374,71.928 C163.374,71.928 163.374,76.753 163.374,76.753 ZM165.910,76.209 C166.096,76.209 166.264,76.192 166.413,76.159 C166.563,76.125 166.692,76.075 166.800,76.009 C166.908,75.943 166.991,75.860 167.049,75.760 C167.107,75.660 167.136,75.544 167.136,75.412 C167.136,75.277 167.110,75.165 167.057,75.077 C167.004,74.989 166.932,74.916 166.842,74.859 C166.753,74.801 166.649,74.754 166.531,74.716 C166.413,74.679 166.289,74.645 166.159,74.615 C165.990,74.578 165.818,74.534 165.643,74.483 C165.469,74.432 165.310,74.361 165.167,74.270 C165.024,74.178 164.909,74.054 164.821,73.896 C164.733,73.739 164.689,73.537 164.689,73.289 C164.689,73.036 164.735,72.816 164.826,72.629 C164.917,72.443 165.041,72.289 165.197,72.167 C165.352,72.045 165.533,71.954 165.740,71.893 C165.946,71.832 166.165,71.802 166.395,71.802 C166.662,71.802 166.910,71.827 167.139,71.878 C167.368,71.928 167.575,71.993 167.761,72.071 C167.761,72.071 167.761,72.741 167.761,72.741 C167.563,72.663 167.362,72.600 167.159,72.551 C166.956,72.502 166.747,72.475 166.532,72.472 C166.351,72.472 166.195,72.491 166.066,72.528 C165.938,72.565 165.832,72.617 165.749,72.683 C165.667,72.749 165.606,72.827 165.568,72.916 C165.530,73.006 165.511,73.105 165.511,73.213 C165.511,73.345 165.540,73.454 165.596,73.538 C165.652,73.623 165.727,73.691 165.822,73.744 C165.916,73.796 166.025,73.840 166.149,73.873 C166.274,73.907 166.402,73.938 166.534,73.965 C166.716,74.005 166.888,74.050 167.051,74.099 C167.213,74.149 167.362,74.222 167.500,74.320 C167.637,74.419 167.748,74.551 167.832,74.719 C167.917,74.887 167.959,75.104 167.959,75.371 C167.959,75.615 167.912,75.831 167.817,76.019 C167.722,76.207 167.588,76.364 167.416,76.491 C167.243,76.618 167.037,76.715 166.796,76.781 C166.556,76.847 166.292,76.880 166.004,76.880 C165.828,76.880 165.668,76.870 165.524,76.852 C165.380,76.833 165.253,76.809 165.143,76.781 C165.033,76.752 164.939,76.722 164.861,76.692 C164.784,76.661 164.719,76.633 164.669,76.605 C164.669,76.605 164.669,75.945 164.669,75.945 C164.868,76.027 165.066,76.091 165.262,76.138 C165.458,76.186 165.674,76.209 165.910,76.209 ZM169.396,70.608 C169.396,70.608 170.183,70.608 170.183,70.608 C170.183,70.608 170.183,71.928 170.183,71.928 C170.183,71.928 171.626,71.928 171.626,71.928 C171.626,71.928 171.626,72.604 171.626,72.604 C171.626,72.604 170.183,72.604 170.183,72.604 C170.183,72.604 170.183,75.417 170.183,75.417 C170.183,75.529 170.199,75.632 170.232,75.727 C170.264,75.822 170.315,75.904 170.384,75.973 C170.453,76.043 170.542,76.097 170.651,76.136 C170.759,76.175 170.889,76.194 171.042,76.194 C171.146,76.194 171.257,76.186 171.374,76.169 C171.491,76.152 171.598,76.130 171.697,76.103 C171.697,76.103 171.697,76.763 171.697,76.763 C171.629,76.790 171.526,76.815 171.387,76.839 C171.248,76.863 171.082,76.876 170.889,76.880 C170.635,76.880 170.415,76.848 170.229,76.786 C170.043,76.723 169.888,76.633 169.764,76.517 C169.641,76.400 169.549,76.258 169.488,76.093 C169.427,75.927 169.396,75.742 169.396,75.539 C169.396,75.539 169.396,72.604 169.396,72.604 C169.396,72.604 168.467,72.604 168.467,72.604 C168.467,72.604 168.467,71.928 168.467,71.928 C168.467,71.928 169.396,71.928 169.396,71.928 C169.396,71.928 169.396,70.608 169.396,70.608 ZM172.976,74.198 C173.132,74.066 173.319,73.965 173.537,73.894 C173.756,73.823 173.997,73.787 174.261,73.787 C174.512,73.791 174.743,73.812 174.957,73.853 C175.170,73.894 175.360,73.945 175.526,74.005 C175.526,74.005 175.546,74.005 175.546,74.005 C175.546,74.005 175.546,73.670 175.546,73.670 C175.546,73.538 175.537,73.421 175.520,73.320 C175.503,73.218 175.475,73.129 175.434,73.051 C175.346,72.888 175.206,72.754 175.013,72.647 C174.820,72.540 174.559,72.487 174.231,72.487 C173.987,72.487 173.757,72.510 173.543,72.556 C173.327,72.601 173.113,72.665 172.900,72.746 C172.900,72.746 172.900,72.086 172.900,72.086 C172.981,72.045 173.077,72.007 173.187,71.972 C173.297,71.936 173.413,71.906 173.535,71.880 C173.657,71.855 173.785,71.835 173.921,71.822 C174.056,71.808 174.192,71.802 174.327,71.802 C174.815,71.802 175.213,71.888 175.523,72.061 C175.833,72.233 176.055,72.462 176.191,72.746 C176.242,72.854 176.278,72.974 176.300,73.104 C176.322,73.234 176.333,73.378 176.333,73.533 C176.333,73.533 176.333,76.753 176.333,76.753 C176.333,76.753 175.673,76.753 175.673,76.753 C175.673,76.753 175.586,76.220 175.586,76.220 C175.586,76.220 175.566,76.220 175.566,76.220 C175.502,76.301 175.421,76.381 175.322,76.461 C175.224,76.540 175.111,76.611 174.982,76.674 C174.853,76.737 174.713,76.787 174.561,76.824 C174.408,76.861 174.246,76.880 174.073,76.880 C173.840,76.880 173.625,76.845 173.431,76.776 C173.236,76.706 173.068,76.605 172.928,76.471 C172.788,76.337 172.678,76.174 172.601,75.981 C172.523,75.788 172.484,75.570 172.484,75.326 C172.484,75.085 172.527,74.870 172.613,74.681 C172.700,74.491 172.821,74.330 172.976,74.198 ZM173.377,75.717 C173.424,75.828 173.489,75.921 173.572,75.994 C173.654,76.066 173.752,76.120 173.865,76.156 C173.978,76.192 174.098,76.209 174.226,76.209 C174.395,76.209 174.552,76.185 174.697,76.136 C174.841,76.087 174.970,76.028 175.083,75.961 C175.196,75.893 175.292,75.825 175.371,75.757 C175.451,75.690 175.509,75.637 175.546,75.600 C175.546,75.600 175.546,74.635 175.546,74.635 C175.401,74.595 175.229,74.556 175.030,74.518 C174.831,74.481 174.612,74.461 174.373,74.457 C174.039,74.457 173.778,74.528 173.589,74.671 C173.401,74.813 173.306,75.031 173.306,75.326 C173.306,75.475 173.330,75.605 173.377,75.717 Z" id="path-1" class="cls-2" fill-rule="evenodd"/>
</svg>
